<?xml version="1.0" standalone="no"?>
<!DOCTYPE svg PUBLIC "-//W3C//DTD SVG 20010904//EN"
 "http://www.w3.org/TR/2001/REC-SVG-20010904/DTD/svg10.dtd">
<svg version="1.0" xmlns="http://www.w3.org/2000/svg"
 width="187.000000pt" height="184.000000pt" viewBox="0 0 187.000000 184.000000"
 preserveAspectRatio="xMidYMid meet">

<g transform="translate(0.000000,184.000000) scale(0.100000,-0.100000)"
fill="#000000" stroke="none">
<path d="M730 1773 c-96 -15 -275 -54 -279 -61 -18 -24 -122 -185 -145 -225
-26 -44 -27 -49 -13 -71 9 -13 17 -41 19 -62 3 -36 5 -39 30 -36 36 4 50 -23
45 -90 -2 -46 -6 -53 -27 -59 -48 -13 -66 -10 -78 16 -16 35 -35 31 -58 -12
-14 -26 -30 -40 -52 -47 -34 -9 -46 -34 -58 -122 -6 -41 -6 -42 93 -145 55
-57 169 -183 253 -279 84 -96 204 -229 267 -294 168 -176 223 -241 223 -265 0
-12 6 -21 15 -21 9 0 15 9 15 24 0 14 37 71 95 147 53 68 107 139 121 157 14
18 27 32 29 30 2 -2 11 -82 20 -178 10 -96 19 -177 21 -179 12 -12 11 18 -2
159 -8 85 -14 172 -12 193 l3 39 105 37 c58 21 125 48 148 60 24 12 46 20 49
17 3 -3 -4 -42 -15 -88 -27 -110 -39 -192 -48 -315 -6 -89 -4 -103 9 -103 12
0 17 17 22 78 17 218 44 344 135 650 l43 142 -34 113 c-32 107 -37 116 -107
200 l-75 87 -74 0 -75 0 -156 159 c-86 87 -203 201 -260 255 -109 101 -112
102 -192 89z m60 -27 c0 -3 -41 -62 -91 -132 -49 -70 -98 -140 -107 -156 l-17
-29 -125 7 c-69 4 -127 8 -128 10 -3 2 141 229 154 243 3 3 71 17 152 32 171
32 162 30 162 25z m286 -261 l257 -255 76 0 c74 0 77 -1 94 -29 9 -15 36 -50
60 -77 37 -41 49 -66 76 -157 17 -60 29 -112 26 -117 -6 -9 -66 -207 -84 -276
-11 -41 -14 -43 -104 -82 -50 -22 -124 -50 -164 -63 l-72 -22 -73 53 c-40 30
-127 92 -193 138 -141 100 -332 246 -450 344 l-83 69 31 75 c17 40 34 74 37
74 13 0 180 -109 288 -186 59 -43 143 -102 187 -132 44 -29 102 -72 128 -94
27 -22 50 -39 52 -37 2 2 -10 38 -26 79 -16 41 -29 80 -29 86 0 11 178 149
193 149 4 0 24 -47 43 -105 33 -99 64 -157 64 -119 0 8 30 30 69 49 63 32 71
39 85 79 23 64 21 132 -5 165 -24 30 -69 56 -98 56 -10 0 -21 5 -23 12 -5 14
-98 -113 -98 -133 -1 -10 -5 -8 -15 5 -13 17 -18 15 -97 -42 -46 -33 -94 -66
-108 -74 -25 -15 -27 -13 -279 243 -177 181 -251 263 -247 274 9 24 210 304
218 305 4 0 123 -115 264 -255z m-666 -83 c0 -4 -9 -13 -20 -20 -11 -7 -20
-10 -20 -8 0 2 -3 11 -6 20 -5 12 0 16 20 16 14 0 26 -3 26 -8z m170 -9 c5 -5
-29 -33 -41 -33 -4 0 -9 12 -12 26 -4 23 -2 25 22 19 14 -4 28 -9 31 -12z
m-230 -33 c0 -5 -5 -10 -11 -10 -5 0 -7 5 -4 10 3 6 8 10 11 10 2 0 4 -4 4
-10z m328 -82 c-26 -16 -38 -8 -38 24 l0 31 25 -23 c19 -18 22 -26 13 -32z
m-233 -88 c3 -5 1 -10 -4 -10 -6 0 -11 5 -11 10 0 6 2 10 4 10 3 0 8 -4 11
-10z m395 -62 c0 -4 -11 -8 -25 -8 -21 0 -25 5 -25 32 l0 31 25 -23 c14 -13
25 -27 25 -32z m-580 27 c0 -8 -4 -15 -10 -15 -5 0 -7 7 -4 15 4 8 8 15 10 15
2 0 4 -7 4 -15z m201 -60 c-15 -36 -30 -67 -33 -70 -5 -5 -106 -19 -217 -30
l-64 -6 7 42 c4 24 11 48 16 54 6 7 52 22 102 33 240 56 223 58 189 -23z m287
-47 c-2 -4 -14 -1 -27 8 -23 17 -23 18 -5 31 16 12 19 11 26 -8 5 -12 7 -26 6
-31z m742 29 c0 -14 -20 -37 -32 -37 -12 0 -10 24 4 38 16 16 28 15 28 -1z
m-571 -29 c12 -15 11 -18 -3 -18 -10 0 -16 8 -16 22 0 12 1 19 3 17 1 -2 9
-12 16 -21z m634 -22 c0 -27 -23 -116 -29 -116 -3 0 -22 11 -44 25 l-40 25 36
32 c20 18 40 43 45 57 12 30 32 16 32 -23z m-116 -97 c41 -23 73 -42 71 -44
-2 -1 -26 -14 -54 -28 l-52 -26 -24 69 c-14 39 -23 70 -20 70 2 0 38 -18 79
-41z m-312 -149 l7 -23 -30 22 c-28 20 -30 24 -20 52 l11 31 12 -29 c7 -16 16
-40 20 -53z"/>
<path d="M780 1633 c-19 -7 -60 -44 -60 -55 0 -11 41 -10 77 3 39 13 53 59 19
58 -11 0 -28 -3 -36 -6z"/>
</g>
</svg>
